<svg xmlns="http://www.w3.org/2000/svg" viewBox="0 0 1197.47 1610.27"><defs><style>.cls-1{fill:#265c66;}.cls-2{fill:#296067;}.cls-3{fill:#205660;}.cls-4{fill:#245465;}.cls-5{fill:#205a61;}.cls-6{fill:#4983c4;}.cls-7{fill:#57bd80;stroke:#231f20;stroke-miterlimit:10;stroke-width:2px;}.cls-8{fill:#1cad5e;}.cls-9{fill:#383d3f;}.cls-10{fill:#fff;}</style></defs><g id="Layer_2" data-name="Layer 2"><g id="Layer_1-2" data-name="Layer 1"><path class="cls-1" d="M1058.78,49.92c-8.36,2.46-16.58,4.72-25.65,3.41-5.64-.82-11.28,1.83-16.4,4.66,3.92-5.43,10-6,15.71-5.89,8.64.09,17-.55,25.3-3.15C1058.83,48.46,1059,49,1058.78,49.92Z"/><path class="cls-2" d="M1058.78,49.92l-1-1,13.1-5.63,0,.35C1067.64,47.38,1062.75,47.75,1058.78,49.92Z"/><path class="cls-3" d="M1070.81,43.67l0-.35c3.4-1.27,6.32-3.62,9.94-4.37C1078.08,41.83,1075,43.81,1070.81,43.67Z"/><path class="cls-4" d="M1167.66,50c-1.21-2.47.25-3.79,2.13-4.93C1170,47.06,1168.29,48.29,1167.66,50Z"/><path class="cls-5" d="M1172,42.29c-.42-2.38,1.14-3.39,2.92-4.25C1174.9,40.14,1173.19,41.05,1172,42.29Z"/><path class="cls-6" d="M1197,182.38c-.37,2.55.65,5.33-1.17,7.65-1.41,2.23-3.29.79-5,.65l-11-3.86c-6.67-2.73-13.43-1.73-20.17-.39a14.69,14.69,0,0,1-4.79.63c-2.66,2.33-6.31,3.1-8.76,5.94-3,3.47-4.13,6.94-2.4,11.34,5.48,13.87,6.07,27.82.49,41.78-.07.19-.14.37-.22.56l-.42,1.53c-1.93,6.4-3.66,12.88-5.85,19.19-1.86,5.37-3,10.7-1.77,16.36a8.12,8.12,0,0,1,2,4.14l-.1,0c4.72,4.87,5.06,10.14,1.05,16.1,0,2.31-1.39,3.81-3,5.19l-.46.89a8.5,8.5,0,0,1-5.55,4.73c-1.41,1-2.19,2.86-4.19,3a16.16,16.16,0,0,0-4.65,5.12c0,.15-.1.22-.15.22.32,3.23.67,6.45,1,9.68a7,7,0,0,1-1.39,5.09,10.34,10.34,0,0,1-5.54,5.38L1105,350c-1.68,1.74-3.37,3.47-5,5.2l-1.45,1.92c-2.11,5.61-1.17,11.67-2.59,17.38-.51,2.08-1,4.11-2.82,5.53-1,2.38-2.42,4.43-5.22,5-1,7-1.34,14.2-4.19,20.86A5.64,5.64,0,0,1,1082,409c-.62.86-1.25,1.71-1.87,2.56v0c-.09.25-.18.37-.28.37l-6.86,7.2-.68.91-3.63,5.75q-1.37,2.56-2.74,5.13a8.68,8.68,0,0,1-2,5c-.05,1.64-.1,3.27-.16,4.92a12,12,0,0,1-3.79,7.28l-.46.88a9.5,9.5,0,0,1-4.49,4.51l-5.3,3.36a16.58,16.58,0,0,1-5.74,3.41l-1.12.6L1038,464.5c-1.74,1.81-3.47,3.63-5.2,5.44-.71,2.33-1.41,4.66-2.12,7,0,3.35,0,6.69-.08,10,.16,3.75.88,7.53-.67,11.17-.12,1.57-.23,3.14-.34,4.71-.73,2.45-.73,5.15-2.69,7.13.07,2.84-1.24,5.09-3,7.19l-1.12,1.74c.27,1.64-.85,2.6-1.72,3.69v0c-.08.22-.17.33-.26.33-.61,1.62-1.27,3.21-2.94,4.06l-11.1,15.93c-.14,2-1.43,3.35-2.83,4.61-6,7.89-11,16.42-16.34,24.69-2.41,3.68-5.17,7.12-7.78,10.68.27,1.68-.7,2.74-1.88,3.68l-7.11,11.3c.14,1.61-.76,2.68-1.88,3.64l-1.14,1.37c0,2.36-1.45,3.93-2.94,5.48-1,.57-.57,2.34-2,2.55a4.94,4.94,0,0,1-2,5h0a38.4,38.4,0,0,1-5,10.27c-.31.5-.62,1-.94,1.49,0,2-.36,3.89-2.07,5.21a8.51,8.51,0,0,1-2,6c-.32,3.26-.63,6.51-.94,9.77a18.35,18.35,0,0,1-.05,12.3c-.07,1.61-.15,3.21-.23,4.82-.52,2.07-.45,4.3-1.74,6.14-.86,2.4-1,5.1-3.05,7a5.29,5.29,0,0,1-2,5,5.62,5.62,0,0,1-2,5,4.21,4.21,0,0,1-2,4.2c-3.47,11.54-9.92,21.57-16.07,31.76-.09,2.28-1.42,3.89-2.91,5.42a63.43,63.43,0,0,1-10.12,14.55c0,2.1-1.52,3.24-2.88,4.47-2.68,2.94-3.93,6.94-7.07,9.54,0,2.11-1.59,3.18-3,4.39l-2.46,3.79c-.56,1.22-1.06,2.49-2.54,2.9-.17,2-1.66,3.13-3,4.37l-8.47,11.73a6.27,6.27,0,0,1-2.49,3.18q-1.58,1.85-3.13,3.71a6.94,6.94,0,0,1-2.89,4.34l-13.08,18.57c.21,1.64-.75,2.67-1.88,3.61l-4.16,6.43c.21,1.64-.7,2.72-1.86,3.67-2.8,3-2.7,7.7-6.12,10.33-1.4,5.18-4.21,9.66-6.91,14.2-2.66,3.17-2.21,7.86-5.3,10.83a15.13,15.13,0,0,1-3.67,7.73c-3.21,5.49-5.69,11.43-10,16.27-1.14,4.6-5.06,7.36-7.4,11.16,0,1.93-1.22,3.08-2.67,4.06l-.45.89a5.06,5.06,0,0,1-2.57,3c-.26.3-.53.59-.8.89a6.59,6.59,0,0,1-3.19,4.11c-.5.67-1,1.32-1.51,2h0a13.65,13.65,0,0,1-4.46,5.11l-1.49,1.92a9.71,9.71,0,0,1-3.56,4,9.88,9.88,0,0,1-3.6,3.88c-1.21,2.56-3.27,4.36-5.37,6.14-1.64,2.17-3.21,4.4-5.59,5.86a39.87,39.87,0,0,1-8.45,9.13l-9.42,10a135.19,135.19,0,0,1-14.55,15.05L729.52,991,718,1003.12l-.79.78c-3.31,3.45-6.36,7.14-10.24,10h0a100.53,100.53,0,0,1-12.83,13.1l0,0c-.17.13-.87.81-2,1.89l-.55.54-.35.34-.13.12,0,0c-4.33,5.71-8.84,9.48-13.69,13.68l-12.43,12.44-.06.06-13.76,15.36a24.13,24.13,0,0,1-3.18,3.83,89.72,89.72,0,0,1-11.68,14.53h0a8.12,8.12,0,0,1-3.29,4.23l-1.66,1.77a11.47,11.47,0,0,1-4.35,5.21,31,31,0,0,1-7,7.76l-2.06,2a18.56,18.56,0,0,1-5.13,4.82c-1.8,1.69-3.41,3.62-5.8,4.56l-.71.71a8.55,8.55,0,0,1-4.31,3.29c-.78,1.52-2.58,1.65-3.71,2.7a9.7,9.7,0,0,1-4.29,3.33c-3.93,3.49-8.59,5.86-13.08,8.48l-6.88,3.42c-2.25,2.32-5.35,3.17-8.08,4.67l-3.93,2.11a2.68,2.68,0,0,1-2.63,1c-2.4,2.32-5.5,3.44-8.41,4.89l-7.73,4.1h0a5.66,5.66,0,0,1-4.26,1.91c-6.59,4.8-14.09,8.06-21,12.26a2.27,2.27,0,0,1-2.06.77c-8.3,4.66-16.58,9.34-24.9,13.94a47.37,47.37,0,0,1-5,2.06l-1.74,1.09-20.2,12-7.13,4.77a25.68,25.68,0,0,1-4,1.3c-3.4,2.74-6.28,5-7.76,6.17a11.32,11.32,0,0,0,.09-1.16c-4.32,3.4-7.37,5.81-7.45,5.9-1,2.17-4.14,1.73-4.91,4.13-.6,3.73-3.65,2.53-5.91,2.93a1.93,1.93,0,0,1-1,1.9l-14.81,10c-1.58,2.28-4,3.48-6.23,5a64,64,0,0,1-12.74,9,12.13,12.13,0,0,1-4.23,4,179.89,179.89,0,0,1-17.83,14c-1,1.5-2.13,2.87-4.12,3h0a13.65,13.65,0,0,1-5.08,4.93c-22.74,19.86-45,40.22-65.93,62l-28,30.92c-3.22,6.06-8.14,10.83-12.55,15.91-10.21,11.77-20.88,23.14-31.43,34.63-14.81,16.13-29.35,32.52-44.62,48.21-11.65,12-23.22,24-34.23,36.54q-18.33,20.81-34.77,43.3c-7.2,9.86-14.35,19.8-21.61,29.64-5.77,7.83-10.26,16.6-15.34,25a25.86,25.86,0,0,1-4.06,5.32c2.38-10.21-5.57-15.27-10.22-21.67-10.69-14.71-21.91-29-32.93-43.49q-10.09-13.21-20.27-26.38A7.71,7.71,0,0,1,3,1514.79c-1.08-.54-2.52-1.42-2.28-2.41,1.55-6.6-1.21-13-.15-19.79a81.36,81.36,0,0,0-.15-24.87c-.53-3.42.69-6.52.68-9.85Q.87,1359.52,1,1261.15c0-2.48.38-5-1-7.33,1.21-2,1-4.13,1-6.27q0-80.9.07-161.8c0-1.64-1.06-3.68,1-5l1.77-1,4.05-4.16c8.82-9.84,18.29-19,27.89-28.12,3.29-3.1,5.27-7.12,8.13-10.49h0c.09-2.13,1.56-3.34,3-4.55l21.66-30.58a12.27,12.27,0,0,1,3.36-4.46l16.76-23.52a7.88,7.88,0,0,1,3.24-4.22c4.52-6.1,9.08-12.16,13.54-18.31a60.79,60.79,0,0,0,3.22-5.47c.67-1.7,1.45-3.29,3.29-4,1.41-.54.49-3.27,2.79-3,.38-3.53,2.32-6.05,5.13-8,.18-1.84,1-3,3-3.1-.39-1.8.66-2.86,2-3.78h0c.19-2.22,1.42-3.06,3.62-3.14,6.12-.25,12.23-.65,18.35-1,1.23-1.15,2.73-.92,4.21-.78l6.79-.32a3.54,3.54,0,0,1,3.27-.62l6.69-.29a3.44,3.44,0,0,1,3.2-.8l21.77-2.23A3.64,3.64,0,0,1,196,914l3.76-.24,10.12-1.94c1.87-1.15,4.34-.24,6.08-1.8l7.9-3.2h0a15.31,15.31,0,0,1,5-4.84c1.12-1.19.92-3.32,2.83-3.93v0q1.6-5.57,3.22-11.14c.28-.7.55-1.4.82-2.09.2-1.88.53-3.69,2.13-5,3.3-7.2,8.31-12.74,15.63-16,1.39-1.66,3.47-1.79,5.33-2.39l7.1-1.51,22.88-5,3.72-1.12a7.31,7.31,0,0,1,5.31-2h0a19.34,19.34,0,0,1,8.06-4c.86-.39,1.52-1.36,2.67-.92,1.18-2.09,2.73-3.57,5.39-3.12,2.7-1.91,5.34-3.93,8.58-4.9a6.29,6.29,0,0,1,4.27-2c3.06-2,6.59-2.68,10-3.59l5.85-1.48L345,831l10-1.8,6.94-1,6.82-.45c1.65-1.09,3.49-.87,5.31-.71H398.8c1.32-.47,2.2.43,3.18,1,5-.36,10-.86,15,.76h0l5.9.21c1.49-.18,3-.44,4.29.68,11.29.27,22.42,2.25,33.63,3.34a3.6,3.6,0,0,1,3.25.71l2.87.18c1.61-.5,3.3,1.17,4.87-.19a10.92,10.92,0,0,1,4.06-3.75l6-6c1.56-4.09,5.13-6.44,8.08-9.32,1.61-2.94,5.37-3.63,6.9-6.65,1.59-4.07,5.1-6.48,8.11-9.31,2-3.24,6-4.35,7.89-7.73,2.37-4.61,6.17-7.93,10.14-11.09l3.72-3.28L528.7,774c1.18-3.8,4.55-5.75,7.12-8.38,1.95-3.38,5.9-4.71,8.07-7.86,2.23-4.67,6.31-7.68,10-11.08l6.75-6.51c1.79-4.64,5.79-7.3,9.28-10.42l6-7,9-9.19a25.24,25.24,0,0,0,6.4-6.91,40.85,40.85,0,0,1,8.64-8.92c1.44-3,5.06-4,6.43-7.1a38.83,38.83,0,0,1,7.55-8c.32-.32.63-.65.94-1l6.24-6,0,0c2.49-5,6.77-8.29,10.74-11.91,3.42-2.31,4.91-6.36,8-9q3.51-3.58,7-7.15l6.76-6.49,0,0c1.17-3.88,4.54-5.89,7.23-8.47,1.62-3.15,4.91-4.6,7.25-7,2.1-4.69,6.18-7.62,9.75-11l6.75-6.53c2.26-4.75,6.21-7.95,10.18-11.13l5.8-5.75h0c1.14-3.92,4.54-6,7.24-8.58,1.53-3.12,5.15-4.08,7-6.83,1.65-3.9,4.91-6.4,8-9.07,1.69-3.42,5.68-4.62,7.56-7.85a35.93,35.93,0,0,1,9.47-9.92c1.16-2.71,4.22-3.56,5.77-5.9,2.32-4.71,6.27-7.93,10.22-11.15l5.83-5.88c1.89-4.48,5.83-7.17,9.12-10.42l5.89-5.58c3.55-3,7.69-5.53,9.12-10.4,3.79-2.52,6.14-6.37,9-9.76a24,24,0,0,0,2.25-.9c1-3.08,4.71-4.24,5.76-7.31l6.18-5.84c1.88-4.89,6.31-7.54,9.73-11.08l-1.94-1c-2-1-4.33.2-6.36-.67a2.58,2.58,0,0,1-.52-.27h0c1-1.15,2.44-1,3.73-.87,4.91.41,8.68-1.67,11.9-5.13,1.36-1.46,2.79-2.87,4.24-4.24,1.81-1.7,2.87-2.83,3.17-3.85,17.4-17.31,46.1-50.3,48.31-52.59,11.44-11.88,23.53-23.13,34.1-35.84a40.36,40.36,0,0,1,6-5.24,9.69,9.69,0,0,0,3.19-5.66c0-1.87,0-3.73-.11-5.6-1-8.5-.79-17.06-1-25.6v-.11c.13-18.78-2.54-61.73-3.74-82.6,0-.65-.07-1.29-.11-1.94,0-.31,0-.61,0-.91-.62-10.94-.57-21.91-1-32.87-1-22.56-2.54-45.11-2.88-67.68-.2-13.29-2.18-26.51-1.3-39.82.15-2.3-.18-4.67.89-6.85.09-.1.17-.23.26-.34l0,0a13.33,13.33,0,0,1-2.38-.23,1.58,1.58,0,0,1-.36-.14,2.36,2.36,0,0,1-.87-.65l0,0,.3-.27.7-.63A59.05,59.05,0,0,0,936.68,80c10.3-3.55,21.25-2.84,31.9-4.09l.27-.14,8.28-4.37c.25-2.32,2.08-3.72,3.23-5.51a6.72,6.72,0,0,1,3.4-3.9c2.43-2.26,5.5-2.52,8.4-1.9,8,1.68,15.76,1.93,23.16-2.26.37-.21,1,0,1.48,0l-.06.15h0a0,0,0,0,1,0,0h0l0,0h0a23.41,23.41,0,0,1,17.57-5.28,56.61,56.61,0,0,0,23.46-3.21l.33-.14.65-.27c4-1.67,8.13-3,11.87-5.28l.06,0h0l.33-.08h0a33.35,33.35,0,0,0,9.7-4.73c3.06-2.9,7-4.91,8.7-9.14,2.8-3.79,4-8.16,4.52-12.75l1.79-3.08a5,5,0,0,0,2.91-3.29,2.54,2.54,0,0,1,1.89-1.81c1.66-.59,2.8-1.91,4.14-2.94l0,0c4.58-2.55,9.18-5,14.44-5.72h0c.43-.07.86-.11,1.31-.14l.39,0c1.87,0,3.73,0,5.59,0l.44,0c.45,0,.9.1,1.33.18,3.87.72,7.15,2.91,10.56,4.76l3,2a32.73,32.73,0,0,0,23.09,5.2c5.09-.68,9.11.27,11.94,4.73,0,0,0,0,0-.05,2.78,6.29,2.12,12.59.06,18.9l-2,2.25c-1,1.38-2.46,2.48-2.92,4.25-.72.92-1.44,1.84-2.17,2.75-1,1.52-2.29,2.91-2.13,4.93l-1.73,3.15-5.07,15c-.43,3-.85,5.9-1.28,8.85l-.63,6.78a18.46,18.46,0,0,0,6.55,9.11l1.35,1.16h0c2.06-.09,3,1,3,3,3.32,3.06,1.26,6.3.16,9.39-2.09,5.88-4.29,11.66-5.32,17.92a53.28,53.28,0,0,0,3.12,28.61.83.83,0,0,1,.26.44c1.14,1.92,2.39,3.79,3.35,5.8,2.29,4.82,2,5.51-3.41,5.84-2.53.15-3.44,2.18-5.13,3.29v0c-.11.3-.21.61-.31.91,0,1.9.07,3.8.11,5.7,0,.37.09.73.13,1.1l1,1a51.57,51.57,0,0,0,15.68.65c1.93-1.08.34-2.26.09-3.4-1.75-1.52-3.14-3.25-.92-5.28s3.58-.16,5,1.32c1.08,1.18,2.11,2.4,3.16,3.6a42.88,42.88,0,0,0,4.3.83C1197.91,175.37,1198,175.36,1197,182.38Z"/><path class="cls-7" d="M444.08,1215.86c.13-.08.49-.33,1-.74,0,.22-.06.45-.1.67Z"/><path class="cls-7" d="M691.21,1029.81c-.05,0-.1.11-.16.16l0,0Z"/><path class="cls-7" d="M694.07,1027c-.65.64-1.31,1.27-2,1.89C693.2,1027.85,693.9,1027.17,694.07,1027Z"/><path class="cls-8" d="M924.52,349.43a9.69,9.69,0,0,1-3.19,5.66,40.36,40.36,0,0,0-6,5.24c-10.57,12.71-22.66,24-34.1,35.84-2.21,2.29-30.91,35.28-48.31,52.59-.3,1-1.36,2.15-3.17,3.85-1.45,1.37-2.88,2.78-4.24,4.24-3.22,3.46-7,5.54-11.9,5.13-1.29-.11-2.69-.28-3.73.87h0l-73.77.2c-5.83,0-11.66-.23-17.48,0-4.25.15-8.62-1-12.75.85l-5.1.17-1.93-.64a1.23,1.23,0,0,0-.25-.48l-.58-1.15-.49-.19L696,461c-2-.26-3.88-1.56-6-1-.83-1.74-2.65-1.73-4.15-2.24q-12.22-4.15-24.49-8.26c-2.34-.78-4.59-2-7.2-1.46a37.82,37.82,0,0,1-12.3-4c.15-.26.46-.54.42-.77s-.42-.42-.69-.52q-19.29-6.51-38.61-13c-.53-.18-1.23.17-1.85.27-6.36-1.13-12.29-3.51-18.2-6-.94-2.75-3.14-2.18-5.2-2-1,0-2,.22-2.77-.66h0c-6.85-4.92-15-6.37-22.88-8.39a15.46,15.46,0,0,0-10-3h0a66.64,66.64,0,0,1-13.06-4.24c-.16-2.59-2.7-1.76-4-2.76h0c-8.74-2.33-16.93-6.46-25.92-8-5.31-3-11.12-4.57-17-5.91-2.23-2-4.94-2.27-7.75-2.14l-1.35-.2c-1.6-2.72-4.2-3-7-2.82-8.12-4.51-17.09-6.6-25.9-9.17-2.21-1.09-4.3-2.64-7-1.79a9.89,9.89,0,0,1-6.21-1.9L428,370l-1.7-.54L425,369l-3-1c-5.64-1.86-11.24-3.84-16.93-5.55-8-2.43-15.65-6.1-24-7.37-1.55-1.93-4.09-1.91-6-3.07l-12-3.94c-8.23-1.24-13.38-7-18.9-12.45-2.83-2.77-4.8-6.76-9.27-7.59l-.84-.84c-.28-1.76-.15-4-3.08-3a173.32,173.32,0,0,1-17-16.75l-15.4-7.18a.55.55,0,0,0,.34-.15A.87.87,0,0,0,299,300c-1.33-1.87-3.51-2.38-5.46-3-3.94-1.22-6.13-3.24-5.52-7.74.3-2.22.16-4.76-3.05-5.19l-1-.65c-.52-2.49-2.07-3.55-4.57-3.3-.28-1.34-1.91-.81-2.47-1.77-.3-2.27-1.77-3.19-3.88-3.38a17.65,17.65,0,0,1-3.75-11.93c-.1-.42-.19-.83-.28-1.25-.62-2.78-1.14-5.58-2-8.29s-.33-6.17-4-7.36c-12-3.51-20.13-10.73-22.68-23.42a7.43,7.43,0,0,0-1.68-3c-.32-.4-1.16-.4-1.76-.58-.56-1.85-1.62-3.07-3.8-2.89-.81-2.23-2.26-3.51-4.78-3.15l-1.32-1.23c-.76-2.48-2.7-3.43-5-3.86h0c-6.4-7-10.19-15-10.05-24.77,0-2.23.35-5.3-2.23-7-.6-.85-1.2-1.7-1.79-2.56v0c-1-4.11-2.55-7.79-6.84-9.5.75-3.27-3.25-4.91-2.8-8.08,1.57-.92,2.8-2.07,2.84-4.06a9.83,9.83,0,0,0,4.82-7.05.09.09,0,0,0,0,0s0,0,0-.06c2.35-4.91,6.13-8.85,9.36-13.11,1.9-2.49,5.64-2.19,8.63-3h0a1.46,1.46,0,0,0-.07.19h0c1.55-.3,1.82-1.57,2.37-2.81,3.59-8.17,7.37-16.27,10.95-24.44C239.18,97,242.59,93,243.93,88c1.81-1.16,3.55-2.35,2.27-4.93.6-2.4,2.74-3.6,4.18-5.35.8-3.62,3.56-6,5.59-8.84l.06.77,0,.46A7.15,7.15,0,0,0,259,67c1.39-2,3.78-3.26,4.05-6,.06,0,.13,0,.19-.15h0c1.62-1.22,3.25.32,4.88.18h0l.9.84c2.89,2.53,5,6.08,9.12,7,1.46,3.74,4.89,4,8.07,4.09A7.89,7.89,0,0,1,292.83,76l.13.17c0-.21.05-.42.08-.62s.06-.5.09-.75c2.16,3.19,1,6.77.81,10.09A28.12,28.12,0,0,0,299,103.07a2.23,2.23,0,0,0,0,.73v0c.57,3.34,2.71,5.19,5.83,6.1.74,1,1.47,2,2.21,3,.89,4,4.4,6,7.06,8.52,3.87,3.66,6.68,8.6,12,10.56l4,3.35a19.45,19.45,0,0,0,9.95,9.68l.87.86c2.28,2.89,4.19,6.21,8.18,7.13l.76.72c1.5,2.44,3,4.9,6.27,5.09,1.17,2.66,2.95,4.61,5.94,5.2.78,1.74,1.84,3.09,4,2.88.62,2,2.18,3.12,3.84,4.15l4.69,3.77.39.31c1.52.4,2.4,2.41,4.35,1.74a19,19,0,0,0,5.65,4.09c2.72,3.45,6.54,4.65,10.65,5.25l.14.08c.13.07.26.14.38.22-.43,1.69-2.63,1.3-3.31,2.77a27.55,27.55,0,0,1,7.11-1.48,17.58,17.58,0,0,0,6,.23,45.7,45.7,0,0,0,8.8-2.25,1.57,1.57,0,0,0,.32-.63.28.28,0,0,0,0-.13,1.42,1.42,0,0,0-.14-.86c10.51-.34,21-.94,31.54-.27,1.31.34,2.82-.17,4,.68l.09.34h.3c4.79,2,9.09.73,13.17-2a1.59,1.59,0,0,0,.11-1c3,1.88,4.76.37,6-2.54L470,179h0l-.27-.29,4.16-3.43a.5.5,0,0,1,.69-.38h0a24.49,24.49,0,0,1,14.24-7l.72.07.49,0c2.22,0,4.52.25,5.92-2.06,2,0,3.07-.92,3-3,3-1.84-1.23-7.12,2.88-7.5,2.85-.26,6.08.51,9.16.54,1,0,2-.1,2.94-.15,3.9-1.06,7.87-1.94,11.66-3.3,1.16-.41,3.7,0,3.26-2.7l3.18-1.75c2.18,1.93,3.27-1,5-1.12l-.57-.56L536,146c1.59-1.13,2.8-2.87,4.95-3.14v.1a14.86,14.86,0,0,0,8.93-8.7.48.48,0,0,1,.67-.38,2.81,2.81,0,0,0,3.49-1.93c6.74-.64,12,3.07,17.67,5.8l.35.17c2.11.44,4.22.82,6.31,1.33,6.76,1.67,13.63,3.18,20.58,2.46,5.39-.57,10.72-1.18,16.14-.73l.19.13a13.93,13.93,0,0,0,5.76,5.72,1,1,0,0,1,0-.25,3.25,3.25,0,0,1,0-.54c6.6,6.31,14.34,5.17,22.21,3.46,7.12-1.54,13.47-4.87,19.8-8.27a5.23,5.23,0,0,1,0,.56,1.47,1.47,0,0,1,0,.21l.09,0c2-.3,3.84-.77,4.66-2.95,4.43-.74,7.66-3.74,11.3-6,2-1.37,4.7-1.62,6-4,2-.37,4-.92,5-3l.09,0a.54.54,0,0,0,.26-.23.18.18,0,0,0,0-.21.81.81,0,0,0-.36-.29l3.95-2.24c.12.19.25.29.38.29h0a.52.52,0,0,0,.37-.24h-.12l.36-.35a10.22,10.22,0,0,0,5-3l.1,0a.41.41,0,0,0,0,.11,6.59,6.59,0,0,0,5.95-3.88l-.14-.06c2.51.13,3.81-1.09,4-3.55a.58.58,0,0,1,.74-.46c4.3-1,6.92-3.8,8.37-7.84a8.6,8.6,0,0,1,4-2.85c1,1.54,2,.27,3-.13a57.73,57.73,0,0,1,40.64-2.34c15.76,4.87,30.46,2,45.37-2.58a23.72,23.72,0,0,0,4-.32c15.73-3.91,31.7-6.77,47.28-11.33,14.65-4.3,29.35-7.24,44.24-.8,1.28.55,2.91.3,4.37.41a2.36,2.36,0,0,0,.87.65,1.58,1.58,0,0,0,.36.14,10.22,10.22,0,0,0,2.36.25c-.09.11-.17.24-.26.34-1.07,2.18-.74,4.55-.89,6.85-.88,13.31,1.1,26.53,1.3,39.82.34,22.57,1.91,45.12,2.88,67.68.48,11,.43,21.93,1,32.87,0,.3,0,.6,0,.91,0,.65.07,1.29.11,1.94,1.2,20.87,3.87,63.82,3.74,82.6v.11c.23,8.54,0,17.1,1,25.6C924.54,345.7,924.54,347.56,924.52,349.43Z"/><path class="cls-9" d="M911.88,84.07a2.7,2.7,0,0,0,.81.65,2.36,2.36,0,0,1-.87-.65Z"/><path class="cls-9" d="M915.18,300.42a2.28,2.28,0,0,0,.59.4,2.31,2.31,0,0,1-.67-.43,1.3,1.3,0,0,1-.4-.55h.07A1.32,1.32,0,0,0,915.18,300.42Z"/><path class="cls-10" d="M307.37,208.43c1.08.21,2.17.36,3.23.65a15.93,15.93,0,0,1,11.18,12.19,15.73,15.73,0,0,1-1.71,10.81q-6.44,11.67-12.89,23.33c-.23.42-.49.76-1,.76s-.79-.34-1-.76q-6.45-11.67-12.89-23.33a15.32,15.32,0,0,1-1.91-9.38,15.64,15.64,0,0,1,7.37-11.82,15.35,15.35,0,0,1,7-2.38c.08,0,.17-.05.26-.07Zm-1.19,8a7.95,7.95,0,1,0,7.92,8A7.93,7.93,0,0,0,306.18,216.41Z"/><path class="cls-10" d="M526.12,1112.27c1.08.21,2.17.35,3.22.65a15.49,15.49,0,0,1,8,5.34,15.3,15.3,0,0,1,3.18,6.85,15.63,15.63,0,0,1-1.7,10.8q-6.44,11.68-12.89,23.34c-.23.41-.49.76-1,.76s-.79-.35-1-.76L511,1135.91a15.34,15.34,0,0,1-1.91-9.37,15.65,15.65,0,0,1,7.38-11.82,15.35,15.35,0,0,1,7-2.38,2.68,2.68,0,0,0,.27-.07Zm-1.19,8a8,8,0,1,0,7.92,8A7.95,7.95,0,0,0,524.93,1120.24Z"/><path class="cls-10" d="M876.86,377.29c1.07.21,2.17.36,3.22.65a15.9,15.9,0,0,1,9.48,23q-6.43,11.67-12.89,23.33c-.23.42-.49.76-1,.76a1.13,1.13,0,0,1-1-.76q-6.45-11.67-12.9-23.33a15.39,15.39,0,0,1-1.91-9.38,15.65,15.65,0,0,1,7.38-11.82,15.35,15.35,0,0,1,7-2.38,2,2,0,0,0,.26-.07Zm-1.19,8a7.95,7.95,0,1,0,7.91,8A7.93,7.93,0,0,0,875.67,385.27Z"/></g></g></svg>