<svg id="Layer_1" data-name="Layer 1" xmlns="http://www.w3.org/2000/svg" viewBox="0 0 109.15 208.59"><defs><style>.cls-1,.cls-2,.cls-3,.cls-4,.cls-8{fill:none;}.cls-1,.cls-11,.cls-12,.cls-2,.cls-3,.cls-4,.cls-8{stroke:#1c1c1b;}.cls-1,.cls-2,.cls-3,.cls-4,.cls-6,.cls-8{stroke-miterlimit:3.86;}.cls-1{stroke-width:4.8px;}.cls-2,.cls-3{stroke-width:5.04px;}.cls-10,.cls-3,.cls-4,.cls-8{fill-rule:evenodd;}.cls-4{stroke-width:2.52px;}.cls-5{fill:#502712;}.cls-6{fill:#f5a400;stroke:#f5a400;stroke-width:0.72px;}.cls-7{fill:#0a0a0a;}.cls-8{stroke-width:2.17px;}.cls-12,.cls-9{fill:#1c1c1b;}.cls-11,.cls-13{fill:#fff;}.cls-11,.cls-12,.cls-13{stroke-miterlimit:3.86;}.cls-11{stroke-width:1.77px;}.cls-12,.cls-13{stroke-width:0.44px;}.cls-13{stroke:#fff;}.cls-14{font-size:33.92px;font-family:OCRAStd, OCR A Std;}.cls-15{fill:#f3a321;}</style></defs><path class="cls-1" d="M110.54,31.48,36.83,34.43c-2.54,0-6.45,4.68-6.45,7.73l3.71,52.48a9.91,9.91,0,0,0,9.54,10.68L108.69,109c2.54,0,6.45-4.68,6.45-7.73l5.56-57.64C121.5,32.77,113.08,31.48,110.54,31.48Z" transform="translate(-15.03 -5.58)"/><line class="cls-2" x1="73.99" y1="102.89" x2="73.99" y2="109.52"/><line class="cls-2" x1="45.02" y1="100.87" x2="45.02" y2="111.18"/><path class="cls-3" d="M33.85,113.81l83.21,3c2.54,0,4.6,2.47,4.6,5.52L118,136.64c0,3.05-3.29,5.53-5.83,5.53H35.71c-2.54,0-6.45-2.48-6.45-5.53l-2.47-15.83C26.79,117.76,28.88,113.63,33.85,113.81Z" transform="translate(-15.03 -5.58)"/><polygon class="cls-4" points="22.97 117.81 52.4 120.02 50.54 127.2 22.97 127.2 22.97 117.81"/><path class="cls-4" d="M99.23,128.73a4.15,4.15,0,1,1,4.14,3.86A4,4,0,0,1,99.23,128.73Z" transform="translate(-15.03 -5.58)"/><path class="cls-4" d="M79.93,129.19a4.37,4.37,0,1,1,4.36,4.14A4.26,4.26,0,0,1,79.93,129.19Z" transform="translate(-15.03 -5.58)"/><polygon class="cls-5" points="28.18 52.23 28.24 52.23 28.2 52.34 28.18 52.23"/><path class="cls-6" d="M104.6,94.71c.32.12.5.15.51.21Z" transform="translate(-15.03 -5.58)"/><path class="cls-6" d="M46.7,37.78l-.34.5c0-.23,0-.47,0-.7Z" transform="translate(-15.03 -5.58)"/><path class="cls-6" d="M70.54,9.42v0h0Z" transform="translate(-15.03 -5.58)"/><path class="cls-6" d="M16.9,64.79h0v0Z" transform="translate(-15.03 -5.58)"/><path class="cls-6" d="M66.55,74.6l.52,1-.11.19c0,.11,0,.21,0,.32.18,1,.4,1.94.5,2.92a5.75,5.75,0,0,1-.26,1.45c-.22,2.64-.42,5.27-.66,7.9-.12,1.2-.32,2.4-.47,3.59-.54,1.53-1.07,3.07-1.6,4.6v0c-.16.6-.27,1.24-.42,1.85,2.34.42,4.69.77,7,1.09l32.25-.64c-2.27-5.69-2.66-11.73-3-17.77,0-1-.09-1.87,1.17-1.89-.39-1.09-.74-2.09-1.13-3.19l-2.23,2.16,1.41,2.37L97.29,90c-1.23-1.87-2-8.28-1.26-10.84l1.69,2.28.71-.38a2.24,2.24,0,0,1-.34-3L97,77.83c.12.72.2,1.18.27,1.64l-.44.16a9,9,0,0,1-.93-2.52A14.42,14.42,0,0,1,96.34,74a2.84,2.84,0,0,0,0-.87c-.15-1.11-.32-2.21-.48-3.32l.41-.08c.56,1.56,1.11,3.12,1.68,4.72l1.81-.64c-.82-2.3-1.6-4.52-2.4-6.76L96,67.32a7.75,7.75,0,0,0,.61-1c.18-.4.54-1,.4-1.2-1-1.14-.4-2.53-.7-3.76l.08-.38h-.14l0,.36h0c-.75,1.75-1.51,3.49-2.07,4.8l-2-.59c-.6-13.51-7.93-23.21-18-31.38C72.62,35.77,71.73,38,69,37.76c.68-.24,1.46-.28,1.85-.7a23.17,23.17,0,0,0,3.68-4.45c2.37-4.36,2.73-9.14,2.27-14a16.49,16.49,0,0,1,0-1.86,7.94,7.94,0,0,1-.6-2.12c0-2.53-1.06-4.66-2.27-6.77,0-.07-.06-.15-.1-.22-.31-.36-.63-.72-1-1.14L70.53,9.44l-.17.33,0,0q-1.95,4.51-3.89,9v0c-.41,3.22-.83,6.44-1.25,9.68-1.33-.52-2.9-1.21-4.53-1.74-5.28-1.73-9.54.92-10.81,6.36-1.13,4.86-.79,9.72-.56,14.6a17.87,17.87,0,0,1-.07,3.1,31.82,31.82,0,0,1-2.91-12.44c-.56.82-1.13,1.63-1.63,2.48s-1,2-1.63,3.2a2.85,2.85,0,0,0-.31-.38L41.2,40.37,40,42.18a7.17,7.17,0,0,0-6.22,1.06,4.49,4.49,0,0,0-1.67,2.51L31,46c.16,1,.31,2.07.46,3.1,0,.18-.09.36-.14.53v0a6,6,0,0,1-.84,4.55q-1.87,2-3.77,4l-5.15,4.4.12-.75a6.55,6.55,0,0,0-4.79,3c.12,1.45.2,2.9.37,4.34.12,1,.49,2,.52,3a32.77,32.77,0,0,1-1.68,11.11,32,32,0,0,0-.59,3.87,3.22,3.22,0,0,0,3,3.63,58,58,0,0,0,6.19.41,23.45,23.45,0,0,0,11.57-2.93,9.78,9.78,0,0,0,5.47-8.45c.12-1.83-.19-2.15-1.86-2.4,1.78-.27,3.57-.76,5.22.48l-3.18-.34c.74,4.26-.76,7.47-3.62,10.18s-6.35,3.58-10,4.14c.14,2.09.6,2.63,2.43,2.91a19,19,0,0,0,10.53-1.57c1.05-.46,2.07-1,3.11-1.44,1.71-1.42,2.22-3.43,2.69-5.47-.55-2.22,1.3-6,3.46-6.74,1.31-.46,2.73-.56,4.07-.94,3.07-.86,6.11-1.8,9.16-2.71Zm32.34,4c-.11-.27.17-.69.34-1.25.49.28,1,.47,1,.61a4.07,4.07,0,0,1-.46,1.21C99.48,79,99,78.88,98.89,78.61ZM76.8,62.24c-.11-1.55-.22-3.09-.31-4.33A6.13,6.13,0,0,1,76.8,62.24ZM67.88,26.63a16.58,16.58,0,0,0,1.55,7.06l2.15-1.58a19,19,0,0,1-1.59-10,24.93,24.93,0,0,1,2.85-9.78A6.39,6.39,0,0,0,73.23,11c-.08-.32-.17-.64-.35-1.35-1,2.39-1.8,4.42-2.64,6.45a7.25,7.25,0,0,1-.48.86c1-2.71,1.93-5.43,2.93-8.27.62,1.75,1.27,3.33,1.74,5a26.78,26.78,0,0,1,1,12,5.13,5.13,0,0,1-.54,1.17l-.07.36c-.16.52-.31,1.05-.47,1.57-.44.66-.87,1.32-1.31,2l-.72.86c-.58,1.42-2,1.74-3.33,2.65-.42-1.67-.87-3-1.08-4.44A18.94,18.94,0,0,1,67.88,26.63Zm7.19,40.13a2.82,2.82,0,0,1-.44,1.06c-1.77,1.76-3.58,3.48-5.4,5.19a5.86,5.86,0,0,1-1,.71c-.35.21-.71.4-1.07.59A30.94,30.94,0,0,0,75.07,66.76ZM21,64.67l-.51-.25,1.07-1.73C21.34,63.35,21.15,64,21,64.67ZM36.7,76.6a9.29,9.29,0,0,1-3.94.31c-.68,0-1.31-.76-2-1.17a14,14,0,0,1,1.68-1.51c1.94-1.2,4.35-1.76,5.47-4.32a16.72,16.72,0,0,1,.59,1.69C39,73.5,38.21,76.05,36.7,76.6Zm1-9.24a15.46,15.46,0,0,0-1.46,1.22c-.83.8-1.63,1.63-2.45,2.45a22.29,22.29,0,0,1,3.8-3.9c1.63-1.28,2.85-.91,3.74,1.16C39.87,66.38,39.18,66.24,37.69,67.36ZM55,28.49c.78-1.47,1.53-1.94,3-1.82a4.61,4.61,0,0,1,4,3.1C59.72,27.94,57.36,28.36,55,28.49Z" transform="translate(-15.03 -5.58)"/><path class="cls-6" d="M16.11,83.24h0v0Z" transform="translate(-15.03 -5.58)"/><path class="cls-6" d="M29.7,12.8Z" transform="translate(-15.03 -5.58)"/><path class="cls-6" d="M38,21.07c-1.46-1-2.91-1.92-4.31-2.95-1.14-.84-2.2-1.78-3.3-2.68l-.29.1c1.21,2.88,2.43,5.76,3.62,8.64A7.68,7.68,0,0,1,34,25.54l-.45.13a24.21,24.21,0,0,1-4.47-12c0-.28.39-.58.6-.87L30,13h0l.92.48c3.17,1.13,6.38,2.18,9.52,3.43A26.42,26.42,0,0,1,44.1,19c-1.72.76-3.44,1.53-5.19,2.24A1.18,1.18,0,0,1,38,21.07Z" transform="translate(-15.03 -5.58)"/><path class="cls-6" d="M32.76,18.2l5.59,3.51-1.17.64c-1.28-.94-2.59-1.85-3.82-2.85C33,19.23,33,18.64,32.76,18.2Z" transform="translate(-15.03 -5.58)"/><path class="cls-7" d="M45.13,77.88l0,0h0Z" transform="translate(-15.03 -5.58)"/><path class="cls-7" d="M16.11,83.25c.15-.88.28-1.76.47-2.64.89-4.15,1.48-8.29.16-12.51-.31-1,.09-2.19.16-3.29h0v0h0c.19-.24.39-.48.59-.7-.19.24-.39.49-.59.7.12,1.45.2,2.9.37,4.34.12,1,.49,2,.52,3a32.77,32.77,0,0,1-1.68,11.11,32,32,0,0,0-.59,3.87,3.22,3.22,0,0,0,3,3.63,58,58,0,0,0,6.19.41,23.45,23.45,0,0,0,11.57-2.93,9.78,9.78,0,0,0,5.47-8.45c.12-1.83-.19-2.15-1.86-2.4,1.78-.27,3.57-.76,5.22.48l-3.18-.34c.74,4.26-.76,7.47-3.62,10.18s-6.35,3.58-10,4.14c.14,2.09.6,2.63,2.43,2.91a19,19,0,0,0,10.53-1.57c1.05-.46,2.07-1,3.11-1.44-.1.12-.17.28-.3.36a17.53,17.53,0,0,1-8.28,3A31.94,31.94,0,0,1,30,94.94,2,2,0,0,1,28.07,93c-.06-1.16-.69-1.2-1.6-1.22a52.45,52.45,0,0,1-7.21-.37C15.32,90.79,13.83,86.67,16.11,83.25Z" transform="translate(-15.03 -5.58)"/><path class="cls-7" d="M50.52,79.53c1.31-.46,2.73-.56,4.07-.94,3.07-.86,6.11-1.8,9.16-2.71-.1.12-.19.29-.32.35a38.29,38.29,0,0,1-10.22,3c-3.12.35-4.69,1.71-5.54,4.76-.21.77-.41,1.55-.61,2.32C46.51,84.05,48.36,80.3,50.52,79.53Z" transform="translate(-15.03 -5.58)"/><path class="cls-7" d="M21.55,62.61l0,0v0Z" transform="translate(-15.03 -5.58)"/><path class="cls-7" d="M19.27,62.38a29.75,29.75,0,0,0,7.09-4.09,1,1,0,0,1,.36-.1l-5.15,4.4c0-.22.07-.44.12-.75a6.06,6.06,0,0,0-4.2,2.26A4.77,4.77,0,0,1,19.27,62.38Z" transform="translate(-15.03 -5.58)"/><path class="cls-7" d="M67.21,80.43,67,76.06c.18,1,.4,1.94.5,2.92A5.75,5.75,0,0,1,67.21,80.43Z" transform="translate(-15.03 -5.58)"/><path class="cls-7" d="M31.33,49.64a6,6,0,0,1-.84,4.55Z" transform="translate(-15.03 -5.58)"/><path class="cls-7" d="M67.07,75.55l-.11.19A.2.2,0,0,1,67.07,75.55Z" transform="translate(-15.03 -5.58)"/><path class="cls-7" d="M74.17,34.19c10.07,8.17,17.4,17.87,18,31.38l2,.59c.56-1.31,1.32-3,2.07-4.8l0-.36h.14l-.08.38c.3,1.23-.32,2.62.7,3.76.14.16-.22.8-.4,1.2a7.75,7.75,0,0,1-.61,1l1.42-.23c.8,2.24,1.58,4.46,2.4,6.76L98,74.49c-.57-1.6-1.12-3.16-1.68-4.72l-.41.08c.16,1.11.33,2.21.48,3.32a2.84,2.84,0,0,1,0,.87,14.42,14.42,0,0,0-.45,3.07,9,9,0,0,0,.93,2.52l.44-.16c-.07-.46-.15-.92-.27-1.64l1.1.24.1,0L100.42,76c.39,1.1.74,2.1,1.13,3.19-1.26,0-1.22.91-1.17,1.89.32,6,.71,12.08,3,17.77l2.91-1.86c.25-.52.5-1.07.78-1.65a33.62,33.62,0,0,1,2.48-4.06,6.62,6.62,0,0,0,0-.89c-.18-1.53-1-3-1.23-4.52a10.52,10.52,0,0,1,1.28-6.93v0c-.32-4.56-.74-9.12-1.43-13.64-.31-2-1.37-3.91-2.1-5.86a10.59,10.59,0,0,1-.66-1.52c-1.56-7.09-5.76-12.67-10.35-18a46.11,46.11,0,0,0-10.08-9.07,22.7,22.7,0,0,1-2.87-2.85c-1.34-1.25-2.77-2.39-4.09-3.65a2.4,2.4,0,0,1-.68-1.43c-.21-2-.31-4.05-.45-6.07a16.49,16.49,0,0,0,0,1.86c.46,4.86.1,9.64-2.27,14a23.17,23.17,0,0,1-3.68,4.45c-.39.42-1.17.46-1.85.7C71.73,38,72.62,35.77,74.17,34.19Z" transform="translate(-15.03 -5.58)"/><path class="cls-7" d="M70.38,9.74q-1.95,4.51-3.89,9a19,19,0,0,1,.88-3.31C68.27,13.49,69.37,11.64,70.38,9.74Z" transform="translate(-15.03 -5.58)"/><path class="cls-7" d="M70.52,9.45l2.41-3.87.93,2.06c-.31-.36-.63-.72-1-1.14Z" transform="translate(-15.03 -5.58)"/><path class="cls-7" d="M36.7,76.6a9.29,9.29,0,0,1-3.94.31c-.68,0-1.31-.76-2-1.17a14,14,0,0,1,1.68-1.51c1.94-1.2,4.35-1.76,5.47-4.32a16.72,16.72,0,0,1,.59,1.69C39,73.5,38.21,76.05,36.7,76.6Z" transform="translate(-15.03 -5.58)"/><path class="cls-7" d="M99.6,80.48,97.29,90c-1.23-1.87-2-8.28-1.26-10.84l1.69,2.28.71-.38a2.24,2.24,0,0,1-.34-3l.1,0Z" transform="translate(-15.03 -5.58)"/><path class="cls-7" d="M74.92,26.77h0a1.42,1.42,0,0,1,0,.2l0-.2h0C76,21.34,75.05,16.12,73.23,11c-.08-.32-.17-.64-.35-1.35-1,2.39-1.8,4.42-2.64,6.45a7.25,7.25,0,0,1-.48.86c1-2.71,1.93-5.43,2.93-8.27.62,1.75,1.27,3.33,1.74,5a26.78,26.78,0,0,1,1,12A5.13,5.13,0,0,1,74.92,26.77Z" transform="translate(-15.03 -5.58)"/><path class="cls-7" d="M58,26.67a4.61,4.61,0,0,1,4,3.1c-2.27-1.83-4.63-1.41-7-1.28C55.78,27,56.53,26.55,58,26.67Z" transform="translate(-15.03 -5.58)"/><path class="cls-7" d="M75.07,66.76a2.82,2.82,0,0,1-.44,1.06c-1.77,1.76-3.58,3.48-5.4,5.19a5.86,5.86,0,0,1-1,.71c-.35.21-.71.4-1.07.59A30.94,30.94,0,0,0,75.07,66.76Z" transform="translate(-15.03 -5.58)"/><path class="cls-7" d="M75.11,66.71l0,.05s0,0,0-.06Z" transform="translate(-15.03 -5.58)"/><polygon class="cls-7" points="57.32 25.96 57.32 25.95 57.32 25.95 57.32 25.96"/><path class="cls-7" d="M69,34.18c-.42-1.67-.87-3-1.08-4.44a18.94,18.94,0,0,1-.06-3.11,16.58,16.58,0,0,0,1.55,7.06l2.15-1.58c.26-.19.52-.38.77-.58C71.76,33,70.38,33.27,69,34.18Z" transform="translate(-15.03 -5.58)"/><path class="cls-7" d="M67.88,26.41v0Z" transform="translate(-15.03 -5.58)"/><path class="cls-7" d="M37.69,67.36a15.46,15.46,0,0,0-1.46,1.22c-.83.8-1.63,1.63-2.45,2.45a22.29,22.29,0,0,1,3.8-3.9c1.63-1.28,2.85-.91,3.74,1.16C39.87,66.38,39.18,66.24,37.69,67.36Z" transform="translate(-15.03 -5.58)"/><path class="cls-7" d="M38.15,49.12,39.5,47.3a.54.54,0,0,1,.16-.14l1-1.6" transform="translate(-15.03 -5.58)"/><path class="cls-7" d="M76.8,62.24c-.11-1.55-.22-3.09-.31-4.33A6.13,6.13,0,0,1,76.8,62.24Z" transform="translate(-15.03 -5.58)"/><path class="cls-7" d="M76.8,62.24v.07h0S76.8,62.26,76.8,62.24Z" transform="translate(-15.03 -5.58)"/><path class="cls-7" d="M98.89,78.61c-.11-.27.17-.69.34-1.25.49.28,1,.47,1,.61a4.07,4.07,0,0,1-.46,1.21C99.48,79,99,78.88,98.89,78.61Z" transform="translate(-15.03 -5.58)"/><path class="cls-7" d="M76.63,62.63h0c-.22.89-.45,1.79-.67,2.68h0C76.18,64.42,76.41,63.52,76.63,62.63Z" transform="translate(-15.03 -5.58)"/><path class="cls-7" d="M20.46,64.42l1.07-1.73-.56,2Z" transform="translate(-15.03 -5.58)"/><path class="cls-7" d="M21.55,62.61h0l0,.07Z" transform="translate(-15.03 -5.58)"/><path class="cls-7" d="M67.92,24.22c0,.73,0,1.46,0,2.19h0l0-2.19Z" transform="translate(-15.03 -5.58)"/><path class="cls-7" d="M67.92,24.22h0c.13-.67.25-1.35.37-2h0Z" transform="translate(-15.03 -5.58)"/><path class="cls-7" d="M74.39,28.7l-1.32,2h0l-.71.85h0l.72-.86h0c.44-.65.87-1.31,1.31-2h0l.47-1.57,0-.16,0,.16Z" transform="translate(-15.03 -5.58)"/><path class="cls-7" d="M68.35,21.62l-.06.57h0l.07-.56.31-.66c0-.38.09-.75.14-1.13h0L68.67,21C68.57,21.19,68.46,21.4,68.35,21.62Z" transform="translate(-15.03 -5.58)"/><path class="cls-7" d="M76.81,62.31l-.16.33h0l.16-.33Z" transform="translate(-15.03 -5.58)"/><path class="cls-7" d="M69.57,17.4h0l-.16.32c-.09.49-.19,1-.29,1.46l-.31.66h0l.31-.65h0l.3-1.47.15-.32h0l.16-.33a.47.47,0,0,0,.05-.1l0,.11Z" transform="translate(-15.03 -5.58)"/><path class="cls-7" d="M75.25,66.38l.15-.33h0l.4-.41h0l-.4.41c0,.1-.11.21-.16.32l-.15.33h0l.16-.32Z" transform="translate(-15.03 -5.58)"/><path class="cls-7" d="M45.13,77.88v0l.08.06Z" transform="translate(-15.03 -5.58)"/><path class="cls-7" d="M76,65.32l-.16.33h0c.06-.11.11-.22.16-.33Z" transform="translate(-15.03 -5.58)"/><path class="cls-7" d="M65.24,28.4l1.25-9.68a1,1,0,0,1-1.27.47,42.72,42.72,0,0,0-19.89-.28c-.4.08-.82.09-1.23.13-1.72.76-3.44,1.53-5.19,2.24a1.18,1.18,0,0,1-.92-.21c-1.46-1-2.91-1.92-4.31-2.95-1.14-.84-2.2-1.78-3.3-2.68l-.29.1c1.21,2.88,2.43,5.76,3.62,8.64A7.68,7.68,0,0,1,34,25.54l-.45.13a24.21,24.21,0,0,1-4.47-12c0-.28.39-.58.6-.87l-.52-.64-.48.17c0,5,1.86,9.43,4.42,13.6.33.54.46.83-.2,1.17-.27.14-.4.53-.6.81l-2.71,3.71c1.68.34,3.28-.36,5-1.37l-1.16,1.62L30,34.63l-2.14,1.51-1.6,1q-2.25.78-4.47,1.59c-.11,0-.16.26-.23.39l2.63,1.65,3.36.25h.88l-1.58,4c-.4,1-.86,2.1,0,3.15l.78-1.22.84,1.71c.26-1.48,1.45-2,2.6-2.56l1.15-.28a17.33,17.33,0,0,1,2.25-1c1.21-.37,2.46-.61,3.82-.93l.63.17c.77-1.18,1.54-2.36,2.35-3.62L43,44.09c.62-1.23,1.1-2.31,1.69-3.33.5-.85,1.07-1.66,1.63-2.48a31.82,31.82,0,0,0,2.91,12.44,17.87,17.87,0,0,0,.07-3.1c-.23-4.88-.57-9.74.56-14.6,1.27-5.44,5.53-8.09,10.81-6.36C62.34,27.19,63.91,27.88,65.24,28.4ZM37.47,33.68l2.34,6.63C39,38.05,38.24,35.88,37.47,33.68Zm.88-12-1.17.64L34.37,25l-3.25-7.74.28-.16.63.56.68.53,0,0Z" transform="translate(-15.03 -5.58)"/><path d="M106,99a5.24,5.24,0,0,1,1.31-.28L105.6,91.8l2.32,1c-1.77-3.17-2.11-7-1.86-10.79.29-4.33.47-8.92,3.31-12.35a40.9,40.9,0,0,0-1.64-7.11l-.33-.77-3.72-8.92a1.37,1.37,0,0,0-.13-.2q-1.32-2.16-2.65-4.3l-.09-.16-1-1.57-.08,0a69.6,69.6,0,0,0-7.57-8.89c-1-1-2.24-1.78-3.28-2.75-.8-.75-1.38-2.12-2.49-2.55a2.45,2.45,0,0,0-1-.15L80.05,28c-.53-.41-1.09-.8-1.63-1.2l-1-1.18,0,.05a3.49,3.49,0,0,1,.21,2.68,9,9,0,0,1-2.28,3.73c-.66.64-1.42,1.18-2.08,1.82a3.2,3.2,0,0,1-.26.6,1.7,1.7,0,0,0,.65.52,3.1,3.1,0,0,1,1.11,1v.23l.38.29a10.05,10.05,0,0,0,1.33,1.73l.24.21c1.17,2.64,3,5.29,3.42,7.72.47,2.63,0,5.22.33,7.84.13,1.11.27,2.5,1.62,2.82a1.78,1.78,0,0,0,2.22-1,37.08,37.08,0,0,0,2.1-7.69C90.28,54.4,92.64,61,92.1,68.4l.58.07,3.52-7.66c0,.29.09.68.1,1.06.14,7.19.25,14.37.43,21.56a8,8,0,0,0,1.54,4.87c.8-3.75,1.55-7.29,2.33-10.94.7,4.56,1.16,9,2.12,13.29a43.11,43.11,0,0,0,3,7.87C105.81,98.68,105.91,98.83,106,99Z" transform="translate(-15.03 -5.58)"/><polygon class="cls-5" points="74.19 52.34 74.15 52.23 74.21 52.23 74.19 52.34"/><path class="cls-8" d="M102.47,100.88,52.09,98.13c-4-.21-8-.48-10-4.59" transform="translate(-15.03 -5.58)"/><path class="cls-9" d="M41.84,74.12a10.68,10.68,0,0,0,.35,4.74Z" transform="translate(-15.03 -5.58)"/><path class="cls-9" d="M111.57,41A10.82,10.82,0,0,0,104,37.89l-10.77.29a4.41,4.41,0,0,1,.64.73,4.37,4.37,0,0,1,1,1.08,4.18,4.18,0,0,1,.66.67c.52.29.89.58.94.89l7.58-.3a7.48,7.48,0,0,1,5.08,2c1.22,1.31,1.74,3.25,1.55,5.72L106.09,94.6v.17c0,1.68-2.63,4.43-3.52,4.44L49.14,96.29h-.06a6.27,6.27,0,0,1-4.45-2,6,6,0,0,1-1-1.41,5.66,5.66,0,0,1-3.17,1.18,9.63,9.63,0,0,0,1.75,2.55,9.76,9.76,0,0,0,6.88,3l53.39,2.91c3.2,0,6.9-4.62,7-7.7L114,49.31C114.27,45.83,113.45,43,111.57,41Z" transform="translate(-15.03 -5.58)"/><polygon class="cls-10" points="39.79 36.25 50.09 39.19 55.74 30.41 49.05 35.4 50.87 30.75 46.27 34.16 46.2 30.94 42.7 34.62 42.5 32.69 39.79 36.25"/><path class="cls-11" d="M53.7,48a5.67,5.67,0,1,1,7.13,3.09A5.5,5.5,0,0,1,53.7,48Z" transform="translate(-15.03 -5.58)"/><path class="cls-11" d="M59,46.12" transform="translate(-15.03 -5.58)"/><path class="cls-12" d="M58.5,46.44a2,2,0,0,1,1.22-2.62,2,2,0,1,1-1.22,2.62Z" transform="translate(-15.03 -5.58)"/><path class="cls-12" d="M60.42,45.74" transform="translate(-15.03 -5.58)"/><path class="cls-13" d="M58.54,45.33A1,1,0,0,1,59.16,44,1,1,0,0,1,59.85,46,1,1,0,0,1,58.54,45.33Z" transform="translate(-15.03 -5.58)"/><path class="cls-13" d="M59.5,45" transform="translate(-15.03 -5.58)"/><text class="cls-14" transform="translate(9.87 168.16) scale(0.99 1)">GARO<tspan class="cls-15"><tspan x="0" y="32.33">BITS</tspan></tspan></text></svg>