<svg id="Layer_1" data-name="Layer 1" xmlns="http://www.w3.org/2000/svg" viewBox="0 0 136.8 190.85"><defs><style>.cls-1,.cls-14{fill:#1c1c1b;}.cls-2,.cls-3,.cls-4,.cls-5,.cls-8{fill:none;stroke-miterlimit:3.86;}.cls-13,.cls-14,.cls-2,.cls-3,.cls-4,.cls-5,.cls-8{stroke:#1c1c1b;}.cls-2{stroke-width:4.8px;}.cls-3,.cls-4{stroke-width:5.04px;}.cls-12,.cls-4,.cls-5,.cls-8{fill-rule:evenodd;}.cls-5{stroke-width:2.52px;}.cls-6{fill:#328cc4;}.cls-7{fill:#502712;}.cls-8{stroke-width:2.17px;}.cls-9{font-size:33.92px;font-family:OCRAStd, OCR A Std;}.cls-10{fill:#6ec7d4;}.cls-11{fill:#30312f;}.cls-13,.cls-15{fill:#fff;}.cls-13,.cls-14,.cls-15{stroke-miterlimit:3.86;}.cls-13{stroke-width:1.77px;}.cls-14,.cls-15{stroke-width:0.44px;}.cls-15{stroke:#fff;}</style></defs><rect x="23.27" y="32.29" width="10.63" height="16.9"/><path class="cls-1" d="M43.61,93.86a4.89,4.89,0,0,1-.85-1.67,1.87,1.87,0,0,1-.56-.85l-.94-15.21c-.52.46-1,.92-1.59,1.33A3.93,3.93,0,0,1,38,78.2l.84,13.44C39.11,93.82,41.54,96,44,97v-.15A5.63,5.63,0,0,1,43.61,93.86Z" transform="translate(6.61 -23.32)"/><path class="cls-2" d="M109.54,30.48,35.83,33.43c-2.54,0-6.45,4.68-6.45,7.73l3.71,52.48a9.91,9.91,0,0,0,9.54,10.68L107.69,108c2.54,0,6.45-4.68,6.45-7.73l5.56-57.64C120.5,31.77,112.08,30.48,109.54,30.48Z" transform="translate(6.61 -23.32)"/><line class="cls-3" x1="65.67" y1="82.13" x2="65.67" y2="92.44"/><path class="cls-4" d="M32.85,112.81l83.21,3c2.54,0,4.6,2.47,4.6,5.52L117,135.64c0,3.05-3.29,5.53-5.83,5.53H34.71c-2.54,0-6.45-2.48-6.45-5.53l-2.47-15.83C25.79,116.76,27.88,112.63,32.85,112.81Z" transform="translate(6.61 -23.32)"/><polygon class="cls-5" points="43.62 99.07 73.04 101.28 71.19 108.46 43.62 108.46 43.62 99.07"/><path class="cls-5" d="M98.23,127.73a4.15,4.15,0,1,1,4.14,3.86A4,4,0,0,1,98.23,127.73Z" transform="translate(6.61 -23.32)"/><path class="cls-5" d="M78.93,128.19a4.37,4.37,0,1,1,4.36,4.14A4.26,4.26,0,0,1,78.93,128.19Z" transform="translate(6.61 -23.32)"/><path class="cls-1" d="M40.84,73.12a10.68,10.68,0,0,0,.35,4.74Z" transform="translate(6.61 -23.32)"/><path class="cls-1" d="M110.57,40A10.82,10.82,0,0,0,103,36.89l-10.77.29a4.41,4.41,0,0,1,.64.73,4.37,4.37,0,0,1,1,1.08,4.18,4.18,0,0,1,.66.67c.52.29.89.58.94.89l7.58-.3a7.48,7.48,0,0,1,5.08,2c1.22,1.31,1.74,3.25,1.55,5.72L105.09,93.6v.17c0,1.68-2.63,4.43-3.52,4.44L48.14,95.29h-.06a6.27,6.27,0,0,1-4.45-2,6,6,0,0,1-1-1.41,5.66,5.66,0,0,1-3.17,1.18,9.63,9.63,0,0,0,1.75,2.55,9.76,9.76,0,0,0,6.88,3l53.39,2.91c3.2,0,6.9-4.62,7-7.7L113,48.31C113.27,44.83,112.45,42,110.57,40Z" transform="translate(6.61 -23.32)"/><path class="cls-6" d="M98.45,98.18l.58,0a7.19,7.19,0,0,0-.87-.57c-1.11-.53-2.09-1.34-3.22-1.81-1.41-.58-2.9-.94-4.36-1.39.11.72.18,1.44.34,2.15s.45,1.55.68,2.33l3.09,1A4.53,4.53,0,0,1,98.45,98.18Z" transform="translate(6.61 -23.32)"/><path class="cls-6" d="M129.87,41.12v0a10.57,10.57,0,0,0-4-4c-10.14-6-22.9-4-34,.46-2,.78-4.46-2.95-7.31-4.07-1.16-.66-2.33-1.3-3.53-1.91A83.47,83.47,0,0,0,62,24.62a41.5,41.5,0,0,0-4.22-.87,30,30,0,0,0-17.39,2.12l.11-.41c-6.13,3.28-11.58,7.72-14.85,13.7a24.17,24.17,0,0,0-1.39,3,1.31,1.31,0,0,0-.06.27c-.74,8.61-11,3.28-16.57,6.14-.52.3-.44,1.63-1.37,1.82L6.37,50c-.22.82-.54,2-.79,2.73L5.92,52C9.05,61.19,21.48,65.4,30.84,64.1c.11,0,.21-.17.31-.27.66-.57,1.35-.32,2-.16a1.06,1.06,0,0,0,.47,0l4.7-1.36a8.18,8.18,0,0,1,1.36-.48,1.55,1.55,0,0,0,1.46-1.46c.06-.24.12-.48.19-.7a6.44,6.44,0,0,1,.25-.66c2.07-2.43,5.07-4.43,2.5-7.69,0-.3-.07-.61-.08-.91a4.77,4.77,0,0,1,1.22-3.54c2.82-2.63,7.34-4,10.66-2.06a.9.9,0,0,1,.47.69,2.3,2.3,0,0,1,0,.68,1,1,0,0,0,.86,1.16A6.34,6.34,0,0,0,59.86,47c-.27.25,1.47.28.06,1-.65.3-1.5.34-1.61,1.3.67.06,1.34.16,2,.18a15.59,15.59,0,0,1,3.43.22,3.38,3.38,0,0,0-.51.36.65.65,0,0,1-.26.17c-.86.39-1.71.8-2.57,1.18a23.3,23.3,0,0,1-2.83,1.1,4.08,4.08,0,0,0-3,3.17c0,.14,0,.35.07.4C57.51,57.73,59,60.66,61,63.09c2.23,2.66,3.93,5.79,6.74,8A30.11,30.11,0,0,0,71,73l.51-.59c.11.14-.5.46-.51.59-.17,1.87.46,3.57.27,5.44a1,1,0,0,0,.11.55,10.12,10.12,0,0,1,.86,1.79A18.31,18.31,0,0,0,73,83.62c2.89,5.38,6.85,6.69,11.18,7.8,2,.52,4.07,1.1,6.11,1.64A22.27,22.27,0,0,1,98,96.62a3,3,0,0,0,1.4.41,1,1,0,0,0,1.08-.79,4.36,4.36,0,0,0,.1-1.43c-.18-1-.36-2.09-.57-3.14s-.45-2-.75-3a.39.39,0,0,0-.06-.15c-.87-1.69-1.15-3.9-2.41-5.23a24.52,24.52,0,0,0-1.71-2.37c-.62-.77-1.28-1.51-2-2.23A20.63,20.63,0,0,0,87.91,75a12,12,0,0,0-6.25-1.5,13.86,13.86,0,0,1-2.48-.22c-.16,0-.3-.21-.44-.31.16-.11.33-.3.5-.32a9.48,9.48,0,0,1,2.7-.1,44.79,44.79,0,0,1,6.87,1.91,13.41,13.41,0,0,1,4.09,2.74c1.21,1.12,2.31,2.38,3.46,3.55,2.56,2.31,2.92,5.88,4.26,9a.32.32,0,0,1,0,.09,20,20,0,0,1,.63,2.54,15,15,0,0,1,.25,2.69c0,1.08.18,2.31-.75,3.12l-.14.09c1.46.12,3.11.18,3.82-.27,1-.63,1-2.86,1.14-4.29.69-6.33,1.52-12.65,1.6-19a6.67,6.67,0,0,1,.09-.93,1,1,0,0,0,0-.39,39.82,39.82,0,0,0-2.46-7.57c-.44-1.15-.9-2.29-1.4-3.41s-1-2.23-1.57-3.32c-.7-1.38-1.43-2.74-2.15-4.1-.67-1.63-2.6-2.58-2-5.12a4,4,0,0,1,.46.39,45.37,45.37,0,0,1,3,3.7,44.22,44.22,0,0,1,2.51,4c1.55,1.86,1.34,4.35,2.76,6.19a.79.79,0,0,1,.14.23c.43,1.14.85,2.3,1.23,3.49.22.67.42,1.36.61,2a1,1,0,0,0,1.4.62h0a.94.94,0,0,0,.52-.86v-2a5.21,5.21,0,0,1,0-.69.93.93,0,0,0,0-.47c-1-2.92-2.46-6-2.39-8.73a5.79,5.79,0,0,1,.73-2.77A3.23,3.23,0,0,1,111,52.69l-.11.41c4.36-3.21,9.5-4.45,14.16-7.14,1-.6,2.61-1.16,3.73-1.9S130.62,42.42,129.87,41.12ZM35.11,60.35c-1.09.24-2.17.55-3.26.8a21,21,0,0,1-3.25.54h-.08c-3,0-6.18.44-9.44-.88A16.61,16.61,0,0,1,14.25,59c-2.09-1.24-5.88-3.61-5.86-6.64A1,1,0,0,1,10,51.67c6.08,5.25,13,10,21.52,8.54a19.3,19.3,0,0,0,2.8-.41,4.44,4.44,0,0,1,.62-.1,3.41,3.41,0,0,1,.55,0C35.36,60,35.27,60.31,35.11,60.35Zm3.51-30a1,1,0,0,1-.86-1.74c5.84-3.44,13.12-4.19,19.63-3.26a3.68,3.68,0,0,1,.62.2C51.62,27.13,44.77,28,38.62,30.36Zm65.64,6.06c-1.11.34-1.06-.6.07-.88,7.27-1.78,15-.35,21.64,2.92-.15.11-.32.33-.46.3C125.35,37.38,109.61,34.78,104.26,36.42Zm19.57,7.67c-5.93,2.57-13,4.6-16.72,10.17a3.17,3.17,0,0,1,.3-2.26,15.17,15.17,0,0,1,1-2.46c3.23-5.85,10.4-6.55,16-6.89h.06c1-.11,2-.24,2.88-.43A31.1,31.1,0,0,1,123.83,44.09Z" transform="translate(6.61 -23.32)"/><polygon class="cls-7" points="49.83 34.49 49.88 34.49 49.85 34.6 49.83 34.49"/><polygon class="cls-7" points="95.84 34.6 95.8 34.49 95.86 34.49 95.84 34.6"/><path class="cls-8" d="M102.47,100.88,52.09,98.13c-4-.21-8-.48-10-4.59" transform="translate(6.61 -23.32)"/><path class="cls-8" d="M102.47,100.88,52.09,98.13" transform="translate(6.61 -23.32)"/><text class="cls-9" transform="translate(31.52 150.42) scale(0.99 1)">MOGO<tspan class="cls-6"><tspan x="0" y="32.33">BITS</tspan></tspan></text><path class="cls-6" d="M59.38,23.72c0,.19-.39.07-.33,0Z" transform="translate(6.61 -23.32)"/><path class="cls-10" d="M14,73.75c-3.56-3,.59-8.54,2.62-11.51,0,0,.86.73,1.16.3a15.81,15.81,0,0,0,2.09.79c-2.13,1.44-3.58,2.78-3.21,5.23,0-2,3-2,3.32-3.69,3.18-1.7,7.58.07,11.14-1a1.62,1.62,0,0,0,2.28-.11c2.1-.6,4.25-1.21,6.29-1.91a1.55,1.55,0,0,0,1.46-1.46c1.33-6,8.77-7.27,13.42-4.74,6,5,9,13.78,16.39,17.34l.24,5.73v0c.37,10.18,11.09,13.63,19.36,15.78a20.79,20.79,0,0,0,1,4.48c-3.1-.18-15.18-.77-15.7-.55-5.88.38-5.52,1.8-8,1.36C61.52,98,58.75,87,46.68,83.48a.25.25,0,0,1-.29-.14c-1.77-1-3.83-1.71-5.3-3-4.13-2-7.68-5.36-12.59-5.41C23.78,75.45,18.14,76.9,14,73.75ZM42.74,60.94c0-.15,0,0,0,.13-.05.43-.08.87-.12,1.3.28-.29.58-.56.84-.88a9.77,9.77,0,0,1,3.73-3.27,39.08,39.08,0,0,1,4.19-1.11,3.83,3.83,0,0,0,.65-.3,2.34,2.34,0,0,0-.6-.46,12.44,12.44,0,0,0-2.62-.47,4,4,0,0,0-2.66.77,6.22,6.22,0,0,0-2.06,1.7A7.37,7.37,0,0,0,42.74,60.94ZM29.62,65.69l.34,0s0-.14-.08-.16a1.86,1.86,0,0,0-.33,0C29.57,65.53,29.6,65.61,29.62,65.69Z" transform="translate(6.61 -23.32)"/><path class="cls-11" d="M47.89,54.37c-1.34.7-2.78,1.19-3.57-.77a7,7,0,0,1,4.26-9.35c2.37-.68,8.51-.78,7.53,2.89A6.24,6.24,0,0,0,59.86,47c.25-.05,1.07.17.44.88,0,0-.41-.11-.38.1-.65.3-1.5.34-1.61,1.3.67.06,1.34.16,2,.18,1,1.3,2.13-1.44,2.86.66-.93.41-1.85.86-2.77,1.27a23.3,23.3,0,0,1-2.83,1.1,4.08,4.08,0,0,0-3,3.17l-2.57-1a4.88,4.88,0,0,0,2.36-2.7c.58-3.78-3.58-6.21-6.47-5.24a4.12,4.12,0,0,0-.65,7.12Z" transform="translate(6.61 -23.32)"/><path class="cls-11" d="M90.58,94.44c-1.47-.44-2.93-.94-4.42-1.31a26.54,26.54,0,0,1-8.58-3.78c-3.73-2.53-6.17-6-6.36-10.69a12.68,12.68,0,0,1,1,2.17,14.06,14.06,0,0,0,4.57,7,16.69,16.69,0,0,0,7.34,3.63c2,.52,4.07,1.1,6.11,1.64A22.27,22.27,0,0,1,98,96.62a6.33,6.33,0,0,0,2.31.55,8.82,8.82,0,0,0,.27-2.36c-.18-1-.36-2.09-.57-3.14s-.46-2.07-.77-3.08c-.9-1.7-1.17-4-2.45-5.3a24.52,24.52,0,0,0-1.71-2.37c-.62-.77-1.28-1.51-2-2.23A20.63,20.63,0,0,0,87.91,75a12,12,0,0,0-6.25-1.5,13.86,13.86,0,0,1-2.48-.22c-.16,0-.3-.21-.44-.31.16-.11.33-.3.5-.32a9.48,9.48,0,0,1,2.7-.1,44.79,44.79,0,0,1,6.87,1.91,13.41,13.41,0,0,1,4.09,2.74c1.21,1.12,2.31,2.38,3.46,3.55,2.58,2.32,2.92,5.92,4.28,9.07a22.1,22.1,0,0,1,.64,2.58,15,15,0,0,1,.25,2.69c0,1.08.18,2.31-.75,3.12S99,98,98.16,97.64c-1.11-.53-2.09-1.34-3.22-1.81C93.53,95.25,92,94.89,90.58,94.44Z" transform="translate(6.61 -23.32)"/><path class="cls-10" d="M18.5,61c-2.4-.63-9.19-2.39-10.13-6.77a5.77,5.77,0,0,1,.45-3.55c6.36,5.64,13.64,11.09,22.7,9.57a19.3,19.3,0,0,0,2.8-.41,4.44,4.44,0,0,1,.62-.1,3.41,3.41,0,0,1,.55,0c-.13.21-.22.56-.38.6-1.09.24-2.17.55-3.26.8a19.46,19.46,0,0,1-3.29.54,30.81,30.81,0,0,1-4.82.06A29,29,0,0,1,18.5,61Z" transform="translate(6.61 -23.32)"/><path class="cls-10" d="M107.66,73.12c0-1.68-.07-3.35-.07-5a4.7,4.7,0,0,1,0-.54c-.36-1.12-.76-2.22-1.17-3.29-1.52-1.85-1.27-4.41-2.85-6.3a44.22,44.22,0,0,0-2.51-4c-1.42-1.3-1.91-2.74-3.43-4.09-.15.09-.35.18-.34.24.83,1.7,1.2,3.55,2.39,4.88.72,1.36,1.45,2.72,2.15,4.1.56,1.09,1.08,2.2,1.57,3.32s1,2.26,1.4,3.41a41.46,41.46,0,0,1,2.58,8C107.48,73.64,107.56,73.38,107.66,73.12Z" transform="translate(6.61 -23.32)"/><path class="cls-11" d="M108.08,50.14a13.65,13.65,0,0,1,2.37-3.44c5.78-6.13,15.37-4.74,17-4.49-.4.26-1,.64-1.74,1a51.53,51.53,0,0,1-6.73,2.86,30.91,30.91,0,0,0-6,3.1A23.46,23.46,0,0,0,109.54,52,22.42,22.42,0,0,0,107,55a10.12,10.12,0,0,1,1.07-4.89Z" transform="translate(6.61 -23.32)"/><path class="cls-10" d="M57.39,25.36c.63,0,.93.51,1.34.62a72.57,72.57,0,0,0-27.09,8c4.94-7,14-9.8,22.23-9.06C55.06,25.05,56.23,25.19,57.39,25.36Z" transform="translate(6.61 -23.32)"/><path class="cls-10" d="M126.5,38.9a81.53,81.53,0,0,0-15-2.34,80.45,80.45,0,0,0-11.75.14,26.69,26.69,0,0,1,26.8,2.2Z" transform="translate(6.61 -23.32)"/><path class="cls-6" d="M127.28,47.09c.14-.07-.27-.17-.32-.16Z" transform="translate(6.61 -23.32)"/><path class="cls-6" d="M-6.47,75.27c0-.17-.1-.34-.14-.5a2.82,2.82,0,0,1,.65.08c.08,0,.11.2.17.31Z" transform="translate(6.61 -23.32)"/><polygon class="cls-12" points="55.7 20.46 63.2 29.55 73.96 25.53 64.68 25.61 69.3 22.74 62.94 22.77 64.92 19.93 59.39 20.89 60.44 19.1 55.7 20.46"/><path class="cls-13" d="M44.1,48.45c.86-3,4.27-4.71,7.62-3.77s5.38,4.17,4.52,7.2S52,56.6,48.62,55.65,43.25,51.48,44.1,48.45Z" transform="translate(6.61 -23.32)"/><path class="cls-13" d="M50.17,50.17" transform="translate(6.61 -23.32)"/><path class="cls-14" d="M49.49,50.11a2.28,2.28,0,1,1,1.6,2.72A2.23,2.23,0,0,1,49.49,50.11Z" transform="translate(6.61 -23.32)"/><path class="cls-14" d="M51.68,50.72" transform="translate(6.61 -23.32)"/><path class="cls-15" d="M50.24,49.18a1.14,1.14,0,1,1,.8,1.36A1.12,1.12,0,0,1,50.24,49.18Z" transform="translate(6.61 -23.32)"/><path class="cls-15" d="M51.34,49.49" transform="translate(6.61 -23.32)"/><path class="cls-10" d="M135.82,36.15" transform="translate(6.61 -23.32)"/><path class="cls-1" d="M109,54.89,105.09,93.6v.17c0,1.68-2.63,4.43-3.52,4.44L48.14,95.29h-.06a6.27,6.27,0,0,1-4.45-2,6,6,0,0,1-1-1.41,5.66,5.66,0,0,1-3.17,1.18,9.63,9.63,0,0,0,1.75,2.55,9.76,9.76,0,0,0,6.88,3l53.39,2.91c3.2,0,6.9-4.62,7-7.7l3.77-37.64A4.39,4.39,0,0,1,109,54.89Z" transform="translate(6.61 -23.32)"/><path class="cls-1" d="M109,54.75l-3.88,38.71v.16c0,1.69-2.63,4.44-3.52,4.44L48.14,95.15h-.06a6.32,6.32,0,0,1-4.45-2,5.06,5.06,0,0,1-.59-.73,5,5,0,0,1-.49-.62,5.63,5.63,0,0,1-3.1,1.12,9.53,9.53,0,0,0,1.75,2.56,9.76,9.76,0,0,0,6.88,3l53.39,2.91c3.2,0,6.9-4.62,7-7.7l3.77-37.64A4.43,4.43,0,0,1,109,54.75Z" transform="translate(6.61 -23.32)"/><path class="cls-10" d="M3.9,56.83" transform="translate(6.61 -23.32)"/></svg>